<?xml version="1.0" standalone="no"?>
<!DOCTYPE svg PUBLIC "-//W3C//DTD SVG 20010904//EN"
 "http://www.w3.org/TR/2001/REC-SVG-20010904/DTD/svg10.dtd">
<svg version="1.0" xmlns="http://www.w3.org/2000/svg"
 width="700.000000pt" height="700.000000pt" viewBox="0 0 700.000000 700.000000"
 preserveAspectRatio="xMidYMid meet">
<metadata>
Created by potrace 1.11, written by Peter Selinger 2001-2013
</metadata>
<g transform="translate(0.000000,700.000000) scale(0.100000,-0.100000)"
fill="#000000" stroke="none">
<path d="M5694 6638 c-106 -117 -234 -306 -352 -518 -83 -149 -178 -294 -291
-445 -207 -277 -403 -465 -676 -647 -245 -165 -459 -252 -667 -273 -29 -3 -59
-8 -66 -10 -15 -5 -32 31 -92 200 -81 225 -145 345 -325 606 -168 242 -199
279 -382 464 -155 156 -254 246 -393 356 -200 158 -284 197 -407 190 -31 -2
-81 -47 -99 -90 -36 -84 15 -257 132 -442 12 -20 69 -130 126 -245 123 -246
210 -497 258 -742 17 -83 35 -164 41 -180 7 -15 16 -38 21 -52 6 -14 14 -33
19 -42 7 -15 5 -18 -13 -19 -89 -3 -243 -29 -353 -59 -502 -142 -755 -460
-756 -953 -1 -122 4 -155 51 -397 34 -171 38 -230 21 -312 -16 -74 -125 -295
-197 -398 -33 -47 -76 -107 -95 -135 -51 -73 -124 -205 -143 -261 -38 -109
-30 -244 15 -244 20 0 56 43 87 105 83 164 426 529 639 678 29 20 56 37 60 37
3 0 14 6 22 14 21 18 140 79 341 174 91 44 207 107 258 140 188 125 236 136
372 83 75 -29 1308 -574 1386 -613 151 -75 323 -253 729 -758 48 -60 246 -250
315 -302 175 -132 369 -211 575 -234 124 -14 117 -16 81 30 -63 84 -138 204
-179 288 -68 139 -197 597 -242 859 -3 19 -14 79 -25 134 -10 55 -28 152 -39
215 -12 63 -24 126 -26 140 -35 187 -70 304 -140 465 -7 17 -24 58 -38 92 -25
61 -94 171 -179 286 -183 246 -193 265 -177 336 22 98 145 237 414 468 172
148 218 196 283 296 61 94 161 286 197 382 35 93 125 391 131 435 2 19 6 42 9
50 2 8 7 33 10 55 3 23 8 52 11 65 3 14 7 102 9 195 4 202 -11 319 -55 433
-34 88 -57 115 -92 110 -35 -5 -46 -67 -40 -233 11 -321 6 -462 -23 -600 -31
-149 -103 -380 -153 -490 -27 -60 -64 -141 -82 -180 -68 -148 -141 -232 -395
-457 -220 -194 -341 -340 -381 -460 -22 -67 -15 -167 16 -228 29 -57 117 -181
171 -240 50 -56 176 -244 218 -327 43 -87 115 -307 146 -449 2 -10 22 -99 44
-196 22 -98 43 -192 46 -210 29 -167 110 -446 191 -658 103 -271 157 -369 291
-528 25 -28 41 -52 37 -52 -11 0 -110 29 -179 53 -273 93 -483 277 -790 692
-49 66 -92 122 -95 125 -3 3 -34 43 -70 90 -126 167 -267 306 -389 387 -83 55
-282 154 -506 253 -22 10 -78 36 -125 58 -47 22 -110 51 -140 65 -30 14 -89
41 -130 60 -86 39 -168 77 -255 117 -102 46 -220 102 -223 105 -2 2 14 27 36
57 62 83 90 193 86 333 -3 82 -4 96 -23 175 -31 134 -108 311 -184 422 -59 87
-153 186 -200 209 l-39 20 7 -22 c4 -13 41 -90 82 -171 40 -81 91 -201 113
-265 38 -115 45 -141 55 -213 3 -19 8 -46 11 -59 9 -42 6 -149 -6 -209 -14
-67 -51 -140 -91 -178 -27 -26 -35 -28 -123 -29 -85 -2 -101 -5 -169 -37 -41
-20 -109 -59 -150 -87 -41 -28 -190 -106 -329 -174 -140 -68 -288 -146 -329
-174 -41 -27 -79 -53 -86 -56 -7 -4 -3 17 9 55 21 68 31 247 17 302 -7 27 -53
241 -65 301 -16 81 -20 238 -9 320 46 339 247 552 620 659 218 62 254 65 820
63 449 -2 607 2 680 17 11 2 40 7 65 11 236 37 453 144 756 370 112 85 327
289 399 380 22 27 48 59 58 70 37 39 158 215 237 340 43 70 132 232 196 359
128 252 184 354 254 461 25 39 49 76 54 83 16 26 -4 10 -50 -40z m-3434 -327
c72 -47 217 -157 256 -195 6 -6 49 -45 95 -86 225 -202 341 -317 440 -435 107
-127 358 -511 454 -695 l81 -155 -36 -5 c-45 -6 -228 -5 -505 5 -121 4 -253 8
-294 9 l-74 1 -2 70 c-2 88 -11 155 -37 275 -24 115 -104 373 -151 491 -42
102 -205 430 -274 549 -82 142 -122 238 -106 254 8 7 54 -17 153 -83z"/>
</g>
</svg>
